# xmcd
# Track frame offsets:
# 225
# 13215
# 29164
# 42068
# 56665
# 71794
# 82300
# 97175
# 110122
# 124518
# 145445
# 158325
# 168826
# 180618
# 195187
# 210591
# 227083
# 239945
# 254982
# 269256
#
# Disc length: 3733 seconds
# Revision: 0
# Processed by: cddbd v1.4PL0 Copyright (c) Steve Scherf et al.
# Submitted via: VisiTrax 2.9.5.181 - For more info visit www.synapsa.com
#
DISCID=310e9214
DTITLE=Various Artist - Welcome to Colonel's Country - Stardust Compilation #11
DYEAR=1997
DGENRE=Country
TTITLE0=Rooster Quantrell - I'll Forgive You
TTITLE1=Tony Martin - She's in Texas Tonight
TTITLE2=Michael Apidgain - Hell's Froze Up
TTITLE3=Bo Renfro - I Still Remember El Paso
TTITLE4=Danny Mack - In My Eyes
TTITLE5=Donna Darlene - Love Keeps On Flowin'
TTITLE6=H. P. Axtell - Santa Cruz
TTITLE7=Brant Miller - Little Secret of Mine
TTITLE8=Rooster Quantrell - Old Man Blues
TTITLE9=Vancie Flowers - Glad I Smelled the Roses
TTITLE10=Ben Bradshaw - Internet Romance
TTITLE11=Jerri Arnold - Help Me Shake This Heartache
TTITLE12=Smith Williams - Silver Moon
TTITLE13=Jerry Hunsucker - Big Foot
TTITLE14=Benny Ray - San Jacinto (The Half Breed)
TTITLE15=Nick Holmes - Get It Right
TTITLE16=Steve "Red" Reider - Broken Promises
TTITLE17=R. Lee Holmes - Where's My Good Girl Gone
TTITLE18=Max Berry - Will Wonders Never Cease
TTITLE19=Jerry Hunsucker - Mine Alone
EXTD=Produced by Col. Buster Doss, Nashville, TN
EXTT0=
EXTT1=
EXTT2=
EXTT3=
EXTT4=
EXTT5=
EXTT6=
EXTT7=
EXTT8=
EXTT9=
EXTT10=
EXTT11=
EXTT12=Track 13, Silver Moon, composed by Ron Snowdy
EXTT13=
EXTT14=
EXTT15=
EXTT16=
EXTT17=
EXTT18=
EXTT19=
PLAYORDER=
